<mxfile modified="2021-11-07T19:08:31.550Z" host="app.diagrams.net" agent="5.0 (Macintosh; Intel Mac OS X 10_15_7) AppleWebKit/537.36 (KHTML, like Gecko) Chrome/95.0.4638.69 Safari/537.36" etag="lRzDAVf9cuwFyNGJn0ed" version="14.7.0" type="github">
  <diagram id="7gcUSTIZ7YSJ5vT40chW" name="IoTForce">
    <mxGraphModel dx="946" dy="496" grid="1" gridSize="10" guides="1" tooltips="1" connect="1" arrows="1" fold="1" page="1" pageScale="1" pageWidth="1169" pageHeight="827" math="0" shadow="0">
      <root>
        <mxCell id="0" />
        <mxCell id="1" parent="0" />
        <mxCell id="lqoshv_2jQq_HE2Gdl7D-22" value="" style="rounded=0;whiteSpace=wrap;html=1;" parent="1" vertex="1">
          <mxGeometry x="350" y="400" width="235" height="200" as="geometry" />
        </mxCell>
        <mxCell id="SZY12_XKgGBlkoAp8IEY-13" style="edgeStyle=elbowEdgeStyle;rounded=0;orthogonalLoop=1;jettySize=auto;html=1;strokeColor=#808080;elbow=horizontal;" parent="1" source="SZY12_XKgGBlkoAp8IEY-5" target="76KDw72nTfAtBjLe35yw-3" edge="1">
          <mxGeometry relative="1" as="geometry">
            <mxPoint x="733" y="380" as="targetPoint" />
            <Array as="points">
              <mxPoint x="690" y="380" />
            </Array>
            <mxPoint x="623" y="401" as="sourcePoint" />
          </mxGeometry>
        </mxCell>
        <mxCell id="76KDw72nTfAtBjLe35yw-2" value="Standard REST API" style="edgeLabel;html=1;align=center;verticalAlign=middle;resizable=0;points=[];" parent="SZY12_XKgGBlkoAp8IEY-13" vertex="1" connectable="0">
          <mxGeometry x="0.2716" relative="1" as="geometry">
            <mxPoint as="offset" />
          </mxGeometry>
        </mxCell>
        <mxCell id="SZY12_XKgGBlkoAp8IEY-5" value="Python MQTT handlerÂ  &#xa;REST API" style="shape=image;verticalLabelPosition=bottom;labelBackgroundColor=#ffffff;verticalAlign=top;aspect=fixed;imageAspect=0;image=data:image/svg+xml,PHN2ZyB4bWxuczpjYz0iaHR0cDovL2NyZWF0aXZlY29tbW9ucy5vcmcvbnMjIiB4bWxuczpkYz0iaHR0cDovL3B1cmwub3JnL2RjL2VsZW1lbnRzLzEuMS8iIHhtbG5zOmlua3NjYXBlPSJodHRwOi8vd3d3Lmlua3NjYXBlLm9yZy9uYW1lc3BhY2VzL2lua3NjYXBlIiB4bWxuczpyZGY9Imh0dHA6Ly93d3cudzMub3JnLzE5OTkvMDIvMjItcmRmLXN5bnRheC1ucyMiIHhtbG5zOnNvZGlwb2RpPSJodHRwOi8vc29kaXBvZGkuc291cmNlZm9yZ2UubmV0L0RURC9zb2RpcG9kaS0wLmR0ZCIgeG1sbnM6c3ZnPSJodHRwOi8vd3d3LnczLm9yZy8yMDAwL3N2ZyIgeG1sbnM9Imh0dHA6Ly93d3cudzMub3JnLzIwMDAvc3ZnIiB4bWxuczp4bGluaz0iaHR0cDovL3d3dy53My5vcmcvMTk5OS94bGluayIgdmVyc2lvbj0iMS4xIiBpZD0ic3ZnNTg3OTUiIGlua3NjYXBlOnZlcnNpb249IjAuOTIuMyAoMjQwNTU0NiwgMjAxOC0wMy0xMSkiIHNvZGlwb2RpOmRvY25hbWU9ImF6dXJlX2lvdF9odWIuc3ZnIiB4PSIwcHgiIHk9IjBweCIgdmlld0JveD0iMCAwIDM3LjU2IDM3LjQ1IiBzdHlsZT0iZW5hYmxlLWJhY2tncm91bmQ6bmV3IDAgMCAzNy41NiAzNy40NTsiIHhtbDpzcGFjZT0icHJlc2VydmUiPiYjeGE7PHNvZGlwb2RpOm5hbWVkdmlldyBib3JkZXJjb2xvcj0iIzY2NjY2NiIgYm9yZGVyb3BhY2l0eT0iMSIgZml0LW1hcmdpbi1ib3R0b209IjAiIGZpdC1tYXJnaW4tbGVmdD0iMCIgZml0LW1hcmdpbi1yaWdodD0iMCIgZml0LW1hcmdpbi10b3A9IjAiIGdyaWR0b2xlcmFuY2U9IjEwIiBndWlkZXRvbGVyYW5jZT0iMTAiIGlkPSJuYW1lZHZpZXc1ODc5NyIgaW5rc2NhcGU6Y3VycmVudC1sYXllcj0ic3ZnNTg3OTUiIGlua3NjYXBlOmN4PSIyMC4xMDI5NTciIGlua3NjYXBlOmN5PSIyMC4xNjUyNzkiIGlua3NjYXBlOnBhZ2VvcGFjaXR5PSIwIiBpbmtzY2FwZTpwYWdlc2hhZG93PSIyIiBpbmtzY2FwZTp3aW5kb3ctaGVpZ2h0PSIxMDE3IiBpbmtzY2FwZTp3aW5kb3ctbWF4aW1pemVkPSIxIiBpbmtzY2FwZTp3aW5kb3ctd2lkdGg9IjE5MjAiIGlua3NjYXBlOndpbmRvdy14PSItOCIgaW5rc2NhcGU6d2luZG93LXk9Ii04IiBpbmtzY2FwZTp6b29tPSIxMS44MDQ2MzIiIG9iamVjdHRvbGVyYW5jZT0iMTAiIHBhZ2Vjb2xvcj0iI2ZmZmZmZiIgc2hvd2dyaWQ9ImZhbHNlIj4mI3hhOwk8L3NvZGlwb2RpOm5hbWVkdmlldz4mI3hhOzxnIGlkPSJnNTg3OTMiIHRyYW5zZm9ybT0idHJhbnNsYXRlKC0wLjc1LC0wLjc0NTUpIj4mI3hhOwk8dGl0bGUgaWQ9InRpdGxlNTg3MzMiPlBhZ2UtMTwvdGl0bGU+JiN4YTsJPGcgaWQ9Imdyb3VwNTI1Ny0xIiB0cmFuc2Zvcm09InRyYW5zbGF0ZSgwLjc1LC0wLjc1KSI+JiN4YTsJCTx0aXRsZSBpZD0idGl0bGU1ODczNSI+QXp1cmUgSW9UIEh1YjwvdGl0bGU+JiN4YTsJCTxnIGlkPSJzaGFwZTUyNTgtMiIgdHJhbnNmb3JtPSJyb3RhdGUoLTEyNS4xMDYsNi45ODcyMTQ3LDIyLjIzNzQ2NykiPiYjeGE7CQkJPHRpdGxlIGlkPSJ0aXRsZTU4NzM3Ij5TaGVldC41MjU4PC90aXRsZT4mI3hhOwkJCSYjeGE7CQkJCTxyZWN0IGlkPSJyZWN0NTg3MzkiIHg9IjYuMjgiIHk9IjMwLjc5IiB0cmFuc2Zvcm09Im1hdHJpeCgtMi4yMTA5ODBlLTA2IC0xIDEgLTIuMjEwOTgwZS0wNiAtMzAuNzkxMSA0NS4yMzE2KSIgc3R5bGU9ImZpbGw6I0I4RDQzMjsiIHdpZHRoPSIxLjg4IiBoZWlnaHQ9IjE0LjQ0Ii8+JiN4YTsJCTwvZz4mI3hhOwkJPGcgaWQ9InNoYXBlNTI1OS00IiB0cmFuc2Zvcm09InJvdGF0ZSgtMTE5Ljc4OCwxMy44MDkwMDMsMjUuNzU5MDc4KSI+JiN4YTsJCQk8dGl0bGUgaWQ9InRpdGxlNTg3NDIiPlNoZWV0LjUyNTk8L3RpdGxlPiYjeGE7CQkJJiN4YTsJCQkJPHJlY3QgaWQ9InJlY3Q1ODc0NCIgeD0iNi40NiIgeT0iMzAuNjEiIHRyYW5zZm9ybT0ibWF0cml4KC0yLjQ4NTYzM2UtMDYgLTEgMSAtMi40ODU2MzNlLTA2IC0zMC42MTQ4IDQ1LjQwNzcpIiBzdHlsZT0iZmlsbDojQjhENDMyOyIgd2lkdGg9IjEuODgiIGhlaWdodD0iMTQuNzkiLz4mI3hhOwkJPC9nPiYjeGE7CQk8ZyBpZD0ic2hhcGU1MjYwLTYiIHRyYW5zZm9ybT0icm90YXRlKC05NC43NDYyLDMuMjEzMDcxNiwxOC4zOTUwMDUpIj4mI3hhOwkJCTx0aXRsZSBpZD0idGl0bGU1ODc0NyI+U2hlZXQuNTI2MDwvdGl0bGU+JiN4YTsJCQkmI3hhOwkJCQk8cmVjdCBpZD0icmVjdDU4NzQ5IiB4PSItOC4wNCIgeT0iMjkuMDMiIHRyYW5zZm9ybT0ibWF0cml4KC0yLjY1OTE4N2UtMDYgLTEgMSAtMi42NTkxODdlLTA2IC0yOS4wMjk5IDMwLjkwODUpIiBzdHlsZT0iZmlsbDojQjhENDMyOyIgd2lkdGg9IjE3Ljk2IiBoZWlnaHQ9IjEuODgiLz4mI3hhOwkJPC9nPiYjeGE7CQk8ZyBpZD0ic2hhcGU1MjYxLTgiIHRyYW5zZm9ybT0icm90YXRlKC0xNDguOTI4LDkuNjUwNDI3MywyNS43NjM0NjQpIj4mI3hhOwkJCTx0aXRsZSBpZD0idGl0bGU1ODc1MiI+U2hlZXQuNTI2MTwvdGl0bGU+JiN4YTsJCQkmI3hhOwkJCQk8cmVjdCBpZD0icmVjdDU4NzU0IiB4PSItNS4xNyIgeT0iMzEuOTEiIHRyYW5zZm9ybT0ibWF0cml4KC0yLjgwNTE0M2UtMDYgLTEgMSAtMi44MDUxNDNlLTA2IC0zMS45MDY3IDMzLjc4NTEpIiBzdHlsZT0iZmlsbDojQjhENDMyOyIgd2lkdGg9IjEyLjIxIiBoZWlnaHQ9IjEuODgiLz4mI3hhOwkJPC9nPiYjeGE7CQk8ZyBpZD0ic2hhcGU1MjYyLTEwIiB0cmFuc2Zvcm09InRyYW5zbGF0ZSgyNi44ODQ1LC0yNi44ODQ1KSI+JiN4YTsJCQk8dGl0bGUgaWQ9InRpdGxlNTg3NTciPlNoZWV0LjUyNjI8L3RpdGxlPiYjeGE7CQkJPHBhdGggaWQ9InBhdGg1ODc1OSIgaW5rc2NhcGU6Y29ubmVjdG9yLWN1cnZhdHVyZT0iMCIgc3R5bGU9ImZpbGw6IzAwNzJDNjsiIGQ9Ik0xMC4xLDI4LjM4SDAuNTlDMC4yMywyOC4zOCwwLDI4LjYyLDAsMjkuMDkgICAgIHYzLjRjMCwwLjM2LDAuMjMsMC41OSwwLjU5LDAuNTloNS40djUuMjhjMCwwLjM2LDAuMjMsMC41OSwwLjcsMC41OWgzLjQxYzAuMzUsMCwwLjU4LTAuMjMsMC41OC0wLjU5di05LjM5ICAgICBDMTAuNjgsMjguNjIsMTAuNDUsMjguMzgsMTAuMSwyOC4zOHoiLz4mI3hhOwkJPC9nPiYjeGE7CQk8ZyBpZD0ic2hhcGU1MjYzLTEyIj4mI3hhOwkJCTx0aXRsZSBpZD0idGl0bGU1ODc2MiI+U2hlZXQuNTI2MzwvdGl0bGU+JiN4YTsJCQk8cGF0aCBpZD0icGF0aDU4NzY0IiBpbmtzY2FwZTpjb25uZWN0b3ItY3VydmF0dXJlPSIwIiBzdHlsZT0iZmlsbDojMDA3MkM2OyIgZD0iTTAuNTksMzguOTVoOS41MWMwLjM1LDAsMC41OC0wLjIzLDAuNTgtMC43ICAgICB2LTMuNDFjMC0wLjM1LTAuMjMtMC41OS0wLjU4LTAuNTlINC43di01LjI4YzAtMC4zNS0wLjI0LTAuNTktMC43MS0wLjU5aC0zLjRDMC4yMywyOC4zOCwwLDI4LjYyLDAsMjguOTd2OS4zOSAgICAgQzAsMzguNzIsMC4yMywzOC45NSwwLjU5LDM4Ljk1eiIvPiYjeGE7CQk8L2c+JiN4YTsJCTxnIGlkPSJzaGFwZTUyNjQtMTQiIHRyYW5zZm9ybT0idHJhbnNsYXRlKDEyLjA5MjIsLTI4LjA1ODUpIj4mI3hhOwkJCTx0aXRsZSBpZD0idGl0bGU1ODc2NyI+U2hlZXQuNTI2NDwvdGl0bGU+JiN4YTsJCQk8Y2lyY2xlIGlkPSJlbGxpcHNlNTg3NjkiIHN0eWxlPSJmaWxsOiMwMDZERDY7IiBjeD0iMy42NCIgY3k9IjM1LjMxIiByPSIzLjY0Ii8+JiN4YTsJCTwvZz4mI3hhOwkJPGcgaWQ9InNoYXBlNTI2NS0xNiIgdHJhbnNmb3JtPSJ0cmFuc2xhdGUoMTkuNzIzMSwtMTUuNjE0MikiPiYjeGE7CQkJPHRpdGxlIGlkPSJ0aXRsZTU4NzcyIj5TaGVldC41MjY1PC90aXRsZT4mI3hhOwkJCTxjaXJjbGUgaWQ9ImVsbGlwc2U1ODc3NCIgc3R5bGU9ImZpbGw6IzAwNkRENjsiIGN4PSI0LjM0IiBjeT0iMzQuNjEiIHI9IjQuMzQiLz4mI3hhOwkJPC9nPiYjeGE7CQk8ZyBpZD0ic2hhcGU1MjY2LTE4IiB0cmFuc2Zvcm09InRyYW5zbGF0ZSgyNy45NDExLC0zLjYzOTM5KSI+JiN4YTsJCQk8dGl0bGUgaWQ9InRpdGxlNTg3NzciPlNoZWV0LjUyNjY8L3RpdGxlPiYjeGE7CQkJPGNpcmNsZSBpZD0iZWxsaXBzZTU4Nzc5IiBzdHlsZT0iZmlsbDojMDA2REQ2OyIgY3g9IjMuNCIgY3k9IjM1LjU1IiByPSIzLjQiLz4mI3hhOwkJPC9nPiYjeGE7CQk8ZyBpZD0ic2hhcGU1MjY3LTIwIiB0cmFuc2Zvcm09InRyYW5zbGF0ZSgxNC45MDk4LC02LjQ1Njk4KSI+JiN4YTsJCQk8dGl0bGUgaWQ9InRpdGxlNTg3ODIiPlNoZWV0LjUyNjc8L3RpdGxlPiYjeGE7CQkJPGNpcmNsZSBpZD0iZWxsaXBzZTU4Nzg0IiBzdHlsZT0iZmlsbDojMDA2REQ2OyIgY3g9IjIuOTQiIGN5PSIzNi4wMiIgcj0iMi45MyIvPiYjeGE7CQk8L2c+JiN4YTsJCTxnIGlkPSJzaGFwZTUyNjgtMjIiIHRyYW5zZm9ybT0idHJhbnNsYXRlKDMuMDUyMzksLTE1LjM3OTQpIj4mI3hhOwkJCTx0aXRsZSBpZD0idGl0bGU1ODc4NyI+U2hlZXQuNTI2ODwvdGl0bGU+JiN4YTsJCQk8Y2lyY2xlIGlkPSJlbGxpcHNlNTg3ODkiIHN0eWxlPSJmaWxsOiMwMDZERDY7IiBjeD0iMi45NCIgY3k9IjM2LjAyIiByPSIyLjkzIi8+JiN4YTsJCTwvZz4mI3hhOwk8L2c+JiN4YTs8L2c+JiN4YTs8L3N2Zz4=;" parent="1" vertex="1">
          <mxGeometry x="600" y="260" width="38" height="37" as="geometry" />
        </mxCell>
        <mxCell id="lqoshv_2jQq_HE2Gdl7D-2" style="edgeStyle=orthogonalEdgeStyle;rounded=0;orthogonalLoop=1;jettySize=auto;html=1;entryX=1;entryY=0.5;entryDx=0;entryDy=0;" parent="1" source="76KDw72nTfAtBjLe35yw-3" target="SZY12_XKgGBlkoAp8IEY-5" edge="1">
          <mxGeometry relative="1" as="geometry">
            <Array as="points">
              <mxPoint x="719" y="279" />
            </Array>
          </mxGeometry>
        </mxCell>
        <mxCell id="lqoshv_2jQq_HE2Gdl7D-3" value="Rest callout" style="edgeLabel;html=1;align=center;verticalAlign=middle;resizable=0;points=[];" parent="lqoshv_2jQq_HE2Gdl7D-2" vertex="1" connectable="0">
          <mxGeometry x="-0.0864" y="2" relative="1" as="geometry">
            <mxPoint as="offset" />
          </mxGeometry>
        </mxCell>
        <mxCell id="76KDw72nTfAtBjLe35yw-3" value="" style="shape=image;verticalLabelPosition=bottom;labelBackgroundColor=#ffffff;verticalAlign=top;aspect=fixed;imageAspect=0;image=data:image/jpeg,/9j/4AAQSkZJRgABAQEAAAAAAAD/4QBCRXhpZgAATU0AKgAAAAgAAYdpAAQAAAABAAAAGgAAAAAAAkAAAAMAAAABAEoAAEABAAEAAAABAAAAAAAAAAAAAP/bAEMACwkJBwkJBwkJCQkLCQkJCQkJCwkLCwwLCwsMDRAMEQ4NDgwSGRIlGh0lHRkfHCkpFiU3NTYaKjI+LSkwGTshE//bAEMBBwgICwkLFQsLFSwdGR0sLCwsLCwsLCwsLCwsLCwsLCwsLCwsLCwsLCwsLCwsLCwsLCwsLCwsLCwsLCwsLCwsLP/AABEIAUsB2gMBIgACEQEDEQH/xAAfAAABBQEBAQEBAQAAAAAAAAAAAQIDBAUGBwgJCgv/xAC1EAACAQMDAgQDBQUEBAAAAX0BAgMABBEFEiExQQYTUWEHInEUMoGRoQgjQrHBFVLR8CQzYnKCCQoWFxgZGiUmJygpKjQ1Njc4OTpDREVGR0hJSlNUVVZXWFlaY2RlZmdoaWpzdHV2d3h5eoOEhYaHiImKkpOUlZaXmJmaoqOkpaanqKmqsrO0tba3uLm6wsPExcbHyMnK0tPU1dbX2Nna4eLj5OXm5+jp6vHy8/T19vf4+fr/xAAfAQADAQEBAQEBAQEBAAAAAAAAAQIDBAUGBwgJCgv/xAC1EQACAQIEBAMEBwUEBAABAncAAQIDEQQFITEGEkFRB2FxEyIygQgUQpGhscEJIzNS8BVictEKFiQ04SXxFxgZGiYnKCkqNTY3ODk6Q0RFRkdISUpTVFVWV1hZWmNkZWZnaGlqc3R1dnd4eXqCg4SFhoeIiYqSk5SVlpeYmZqio6Slpqeoqaqys7S1tre4ubrCw8TFxsfIycrS09TV1tfY2dri4+Tl5ufo6ery8/T19vf4+fr/2gAMAwEAAhEDEQA/APXKKKKACiiigAooooAKKKKACiisnVNf03TMozedc44giILD/fboP88VpTpzqy5YK7Ma1anQjz1XZGtWbea5o1jlZrlGkH/LKH95Jn0IXgfiRXD6h4g1bUCytKYIDx5NuSoI9Hb7x/zxWRXuUMn61n8l/mfLYriNJ8uGj83/AJHYXPjQ8izsuOz3L/8Askf/AMVWVP4n16YEedFGp/hjhjx+cgY1i0V61PA4entBfPU8CtmuMrfFUfy0/Inku7uUlpJSxPX5UH8hUXmSf3v0H+FNorrUUtEjznKUndssRXt7CcxSlT/uRn/0Ja04PFOvQ7QZYZVH8MsKDj6x7TWJRWU6FKp8cUzeli69H+HNr5nY23jNCQLyyZfV7Zw3/jj4/wDQq6Cy1nSL/At7pDIf+WUn7uT6bXx+leXUent0rz6uU0J/B7rPYw/EGKp6VLSX3P71/kewUV5zp3iTVrEqjv8AabcYHlzklgP9iTr/ADrtNM1rTdUUCF9k4GXglwJB6kdiPpXhYnAVcPq1dd0fVYLNsPi/di7S7P8ATuaVFFFcB6wUUUUAFFFFABRTZJIolLyyJGg6tIwVR9S3FY9z4n0G3JAnadh2tkLj/vo4X9a1p0alX4ItmFbEUqCvVkl6s2qK5GXxpGM+RYOfQyyqv6KD/OqreM9Q/hs7UD/aaQ/yIrtjlmJf2fxR5ss8wUdOe/yZ3FFcMPGepd7S0P0Mo/mTVmLxr/z20/8AGKbP6Mv9aHleJX2fxQo55gpfbt8mdhRWDb+K9DmwJHlt2P8Az3jO3P8AvR5FbMFxa3KB7eaKVP70Tqw/HFcdShUpfHFo9GjiqNf+FNP5ktFFFYnSFFFFABRRRQAUUUUAFFFFABRRRQAUUUUAFFFFABRRRQAUUUUAFFFFABRRRQAUUUUAFFFFABRRRQAUjMqKzMwVVBZmYgAAckkmhmRFZ3YKiKWZmOAqgZJJNef69r8mou9tbMy2KNgkZDXBH8Tf7PoP8jswuEniZ8sdurPOx+YU8FT5pat7LuXda8UvIZLXTGKx8q90OGftiL0Hv/8ArPJkkkkkkkkkk5JJ7kmiivr6GHp4ePLBH51i8ZVxc+eq/l0XoFFFFbnIFFFFABRRRQAUUUUAFFFFABSqzoyujMroQyshKspHcEc0lFAbHZaL4p3GO11RgGOFjuuACegE2P5/n611wIIBHIPIIrx+um8PeIWtGjsr5ybViFhlY5MBPRWP93+X06eBjstTTqUV6r/L/I+vyrO2mqOJfo/8/wDP7zuqKAQQCDkHkEd6x9Z1600pfLXE14y5SEHhAejSEdB/P9a8CnSnVlyQV2fWVq9OhB1KjskaVzdWtpE01zMkUa9Wc4yfQDqTXJaj4wkYtHpsQVennzjLH3SPp+f5Vzd7f3uoTGa7lZ252r0SMeiL0FVq+lw2VU6fvVdX+H/BPicdn9Wq3HD+7Hv1/wCB/WpNcXV5dv5l1PLM3rIxIH+6Og/KoaKK9hJRVkfOSk5Pmk7sKKKKZIUUUUAFPimngcSQSyRSDo0TFG/NaZRQ1fRjTad0dNp/i6+g2x36C5i4HmJhJgPU/wAJ/SuwstQsNQj820mVwMb16Oh9HU8ivKalt7i5tZUnt5XilToyHB+hHQivJxOV0qutP3X+B9Bgs9r0Go1vej+P3/5nrdFc7oniWG/KW15thvDgIw4inP8As56N7fl6Doq+ZrUZ0Jck1Zn3GGxNLFQ9pSd0FFFFYnQFFFFABRRRQAUUUUAFFFFABRRRQAUUUUAFFFFABRRRQAUUUUAFFFFABRRRQAUUVieI9VOnWeyJsXd1ujhx1Rf4pPw7e59q1pUpVZqEd2YYivDD03VnsjD8Ua2Z5H021f8AcRti6dT/AK2Qf8swfQd/f6c8tRRX22HoRoQUIn5fi8VPF1XVn/wy7BRRRW5yhRRRQAUUUUAFFFFABRRRQAUUUUAFFFFABRRRQBvWXia+s9Pkswu+VcLazOc+Uh6hgeuP4f8A61YbvJI7ySOzyOxZ3ckszHqSTTaKyp0adNuUFZvc6KuKq1oxhUldR2CiiitTnCiiigAooooAKKKKACiiigAooooAK7Xw74hMxj0+/f8AfcLbTsf9Z6I5/veh7/XrxVHIwRkEcgjggiubE4aGIhyy+T7HdgsbUwdT2kPmu57BRWB4b1r+0IDbXDf6ZbqMk9ZoxwH+o6N+ffjfr4utRlRm4T3R+l4bEQxNJVaezCiimu8cYLSOqKOpdgo/M1kdDdtx1FZ8ut6HCSJL+2yOoR/MP5JmqreKPDy9Ll2/3IZj/Na3jhq0toP7mck8bh4fFUS+aNqisL/hK/D/APz1mH/bCT/CpU8S+Hn/AOXwL/10jlX9SuKp4Sut4P7mSswwr0VSP3o2KKqQ6lpVxjyb22cnsJU3f98k5q3WEoyi7SVjqhOM1eLuFFFFSWFFFFABRRRQAUUUUAFFFFABRRRQAUUUUABIAJJAABJJ6ADvXl+sag2pX9xcZPlA+Vbj0iQ4B/Hr+Ndt4mvTZ6XMqnEt0RbJjqAwJc/ln8685r6PJ6Fk6z9EfGcR4tuUcNH1f6BRRRXvnyIUUUUAFFFFABRRRQAUUUUAFFFFABRRRQAUUUUAFFFFABRRRQAUUUUAFFFFABRRRQAUUUUAFFFFABRRRQAUUUUATWl1PZXEF1AcSQuGHow6FT7Hoa7W48X6ZHFGYIpZ5nRWKfcSNiMlWdh1HsDXCUVyYjB0sRJSqLY9HCZlXwcJQpPf8PQ3LvxRrlzkRyJbIf4bdfmx7u+T+WKxpZp523Tyyyt6yuzn/wAeNMoranRp0laEUjmrYqtXd6smxKWiitTnCiiigBMCrVvqGpWhBtrueMD+FXJT8VOV/Sq1FKUVJWkrlQnKDvF2Z01n4w1CLat5DHcJ3eP91L9ePl/QV09hrukahtWKcJMf+WM/ySZ9Bng/gTXmVFeZXyuhV1iuV+X+R7eFz3FUNJvmXnv9/wDnc9gorzvTPEupWJWOYm6thgbJW/eoP9iQ8/gc/hXcWGp2GpReZayhiMeZG3yyRn0Za+fxOBq4fWSuu59hgc0oYzSDtLs/61LlFFFcJ6gUUUUAFFFFABRRRQAUUUUAcL4xuTJfWtqD8tvDvYf7cp/wA/OuZrQ1ubz9W1OTOQLhol+kWIx/Ks+vucJT9nQhHyPyzMK3tsVUn5/logooorpOEKKKKACiiigAooooAKKKKACiiigAooooAKKKKACiiigAooooAKKKKACiiigAooooAKKKKACiiigAooooAKKKKACiiigAooooAKKKKACiiigAooooAKKKKACpLe4uLWVJ7eV4pUPyshwfoe2Pao6KTSasxxk4u63PQdE8RQaiEt7nbFegYA6Rz47pnv7f5G/Xj4JUhlJDKQVIOCCOQQRXd+HvEH20JZXrAXajEUh4FwAOh/2v5181j8u9nerS26rsfb5TnPtmqGIfvdH39fP8zpaKKK8M+pCiiigAooooAKKKR/uP/ut/KgDyOZzJNPIeryyOf+BMTTKPX6miv0JaKx+Pt3dwooooEFFFFABRRRQAUUUUAFFFFABRRRQAUUUUAFFFFABRRRQAUUUUAFFFFABRRRQAUUUUAFFFFABRRRQAUUUUAFFFFABRRRQAUUUUAFFFFABRRRQAUUUUAFFFFABRRRQAUqsyMroxV1YMrKcFWByCCKSigNj0Xw/rI1S3McxAvbdQJR08xegkUfz9/rW3Xk9leT2FzBdQHDxNnHZ1PDI3sa9Rs7qC9toLqE5jmQMPVT0Kn3B4NfJZlg/YT54fC/wZ+hZLmP1un7Oo/fj+K7/5k9FFFeUe+FFFFABR1yKKKAPIZV2SzIf4JJE/75Yim1e1iHyNV1OPGB9pkcf7sn7wfzqjX39OXPBS7o/I60PZ1JQfRtBRRRVmQUUUUAFFFFABRRRQAUUUUAFFFFABRRRQAUUUUAFFFFABRRRQAUUUUAFFFFABRRRQAUUUUAFFFFABRRRQAUUUUAFFFFABRRRQAUUUUAFFFFABRRRQAUUUUAFFFFABRRRQAV1HhHUjDcSadK37u4zJBk8LMo5UfUfy965enRSSQyRTRNtkidZEI7MpyKwxFFV6bpvqdeDxMsLXjVj0/LqevUVXsrqO9tLW6T7s8Svj+63Rl/A5FWK+FlFxbTP1SMlOKlHZhRRRSKCiiigDg/GFsYtRguQPluoACf8AbiO0/ptrm69D8U2RutMeVBmSzcTjHXZ91x+XP4V55X2OW1faYdLqtD84zvD+xxcn0lr/AJ/iFFFFeieKFFFFABRRRQAUUUUAFFFFABRRRQBNaW0t5c29rEVEk77ELkhQcZ5IBNbU3hPV4YppmmsysUbyMFeTJCAscZTFUdB/5DGlf9d//ZWr0a//AOPHUP8Ar0uP/RbV42OxlWhVjCGz/wAz6XKstoYrDzqVL3T7+R5NS0g6D6UteyfNBRRRQAUUUUAFFFFABRRRQAUUUUAFblj4Y1e9RZWCW0TAFTPnewPcIvP54qbwrpkd5dSXc6hobPbsVhlXnbkZH+z1/Kuw1PU7XSrfz58sWbZFGmN0j9cDPb1P+T42Mx04VPYUFeR9LluVUqlF4rFO0f61OZPgq4xxqEZb0MDAfmG/pXN31pJYXU9pI8bvCVDNESVOVDdwD35rpl8ay7/m09dnPCznd+ZTFcpPNJcTTzyHMk0jyufdjmt8H9b5n9Y2+X6HJmP9n8kfqe99d9vmMooor0jxQooooAKKKKACiiigAooooAKKKKACiiigAooooAKKKKACiiigAooooA7fwbd77a7s2PNvIJYx/sS9QPoQfzrqa868LXHkavAhOFuY5YG+uN6/qK9Fr5DNKXs8Q2uup+jZHX9rg0nvHT/L8AooorzD2wqK4uba0hee4kWOJBlmY/oB1zUd9e2un28lzcvtROAByzseiKPU15xqmrXmqz+ZMdsKE+RCp+SMevufU16GCwMsS7vSPf8AyPHzLNIYGNlrN7L9WaWr+J7q98y3s90Fqdysx/10yng5PYH0/XtXO0UV9ZRowoR5aasfn+JxVXFT56ru/wCtgooorY5gqe2s728cx2sEkzDr5a5C/wC8x4H506wtJL+8tbRDgzSBS3XagG5m/AZr02CCx0y02RhIbaBCzseOAMl3bufWvOxuOWGtGKvJntZXlbxt5zdoI4QeFvEJGTBEPZp48/pkVWuNB122BaSykZRyWhKygD6Rkn9K6t/GGjq5VYrt0BxvVEAPuAzA/pV218RaFdkItyIpCcBLhTGSf94/L+tcLxmNh706enoz1FluV1Pcp1tfVf5HmvIJB4IOCD1B96K6PxdLatqEMUMcYkjh3XEiABnaTlVYjrgc/jUPhWW2TVFjmjjYzROsDuATHKvz/Ln1GRXqLEt4f2/L0vY8KWCSxf1Xn62v/X3FG30bWroBobGcqejOBGp+hkIq5/wi3iHGfs8X08+PP867G61/Q7RmSS7RpBwUgBlYH0OzI/WqQ8X6GTjF2B/eMIx+jZ/SvL+vY2esKenoz3f7Ly2l7tWtr6r/AIJxt1pOr2QL3NpKkY6yLh4x9WQkVSr1i1vLK/h862lSWI5VsdQccqytyPyrifFGkw2M8N1bIEt7osrIvCxzDn5R6Hrj2NdGEzF1ansqsbSOTMcmjh6X1ihLmj/Wt1uZ+g/8hjSv+u//ALK1ejX/APx46h/16XH/AKLavOdB/wCQxpX/AF3/APZWr0a//wCPHUP+vS4/9FtXFmv+8Q9P1PTyD/c6nq/yR5MOg+lLSDoPpXV+GtBiuVGoXqbodxFtCw+WQqcGRx6eg/yfdxFeGHg5zPlMJhKmLqqlT/4YwrTStWvQGtrSV0PSQgJGfozkCrreF/EKqT9lQ47LNET/ADrur7UdO0uJHuZAgPyxRoMu2OyIPSsqLxdokjhGF1EpON8kalR7nYxP6V4yx+LqrnpU9Pmz6SWUZfQfs69X3vVL9H+Jw1xa3lo/l3UEsLnoJFIz/unoahr1e4t7HUrXy5VSa3mUMjAg9Rw6MO/oa811TT5dMvJrVyWUYeFyMb4m6H69j9K7sFj1ibwkrSR5eZ5TLBJVIPmg+vYpVds9J1a/Aa1tZHQ8eY2Ej/BnIFX/AA3pUWpXbvOu62tQryL2kdidqH24JP0967m9vrDS7cS3DCOIERxoi5ZjjhUUVnjMe6U/Y0o3ka5dlMcRSeIry5YHDHwr4gAz5EJ9hOmf14rPutL1WyBNzaTRoOr7d0f/AH2mR+tdgvjHRy2GhvFH94pGfzAfNatpq2kagNtvcxuxBzE+UfHf5Hwa5njsZS1q09Pn/wAE7llWXYj3aFbX1X5aHl1W7fTNUu4/NtrSaWPcV3oBt3DqOTSalLbzX99LbxpHA07iJYwFXavy7gB69fxrqtE1zQrDTLS3muCsy+Y0q+VK2GZ2bqqkeleliK9WnSU6cbt9P+GPEwWFoVa8qdapaKvror6+ZqeHLKax0yKOeMxzySyyyo2NwJbaM49gKyPFNnq19d2q21pNLBBAfmQDb5jsd3U+gFdcrBlVh0YBhkY4Iz0NZU3iLQYJZoJboiSF2jkAilIDKcEZC4r5qhWquu60I3evfqfb4rDYdYSOGqT5Y6K90r29Tz66sNQshGbq2lhEm4IZABuK4zjFVuSQByScADkknsK3/EuqWmpz2K2btJHDG+fkdcySMBgBgD2FdJoWgwadFHcXCK986hmZgCIM87E9/U19BPHOjQVSsrSfQ+Rp5WsTipUcPK8F9rf8jkIPD+vXChksnVSMgzMkWR9HIP6U+Xw34hiUsbTeB/zykjc/98g5rttQ13SdNfyp5WabAJihXe6g9N3YfiagtPE2iXcqwiSSF3IVPtCbFYngAMCV/WuBY/GSXOqfu+jPVeU5dGXspVfe9V/kedvHJE7Ryo6SKcMkilWB9weabXqGqaRZapCySqFmUHyZ1A3xntz3HqK80ubea0nntp12ywuUcduOhHseor0sHjY4pdmuh4mZZZPAyTveL2f6MfbWN/eeZ9ltpZvL27/LGdu7OM0tzYahZhGuraWFXJVDIMBiOcCuo8Ffc1f/AH7X+UldTNa2txJbyTRrI1uzPDv5CswxuweM+lceIzOVCu6bjdL79j0sHkcMVhY1lJqT+7e35HmsGi63coJIrGcoRlWcLGCPUeYRUV1pup2Shrq1liQsFDsAULHnG5SRXotzrOjWbmK4vIlkXhkXc7KfRggOK5TxRq9rf/YrezmEsKbp5WUMAZD8qqQwHQZ/Oqw2NxFaok4Wi+uv5kY3LMHhqMpRq3mul1v6bnNVdtNK1a+Aa2tJXQ9JCAkZ+juQK3/DegRXCJqN8geMk/ZoWHyvg48xx6egrq7q8sdPiElzKkMY+VAepwPuoq8n8BRisy5J+yoq7DA5J7Wl7fEy5Y/p3u9jg/8AhFvEOM/Z4vp58ef51TudG1q0Vmnspgi8s6ASIB6kxk12J8XaFnH+lEf3hDx+rZ/SoNU8SaXNpl2tlOTcTL5KoUdHUPwzfMMcDPeop4vG8yU6ej8ma1svyxU5Sp1tUu6f6HDVJDBcXEgigiklkPRIlLN9cCp9NsJ9Su4bSLjd80j4yI41+8x/pXpVlY2Gl2/lwIsaKu6WRsbnwOXkc114zHRw3upXkzzstyqeNvNu0V1/yOCTwz4hcBvsirntJNEp/LNV7rRdas1Lz2cuxeS8e2VQPUmMmuwm8W6JE5RPtEwBwXhjGz8C7A/pWlp+q6dqaM1rLlkx5kbjbIme5U9q4JY/F01z1Kenoz145Tl1Z+zpVfe9U/01PLaK67xPocUaNqVogQBh9rjQYXDHHmqB+v5/Xka9jD4iOIhzxPm8Zg6mDqulU/4dBRRRXQcYUUUUAWLCUwX1hMP+WdzA5+gcZr1ivH8kcjqOfy5r07+0DXgZvSc3Bx8/0PreHsRGnGpGXl+ppUyWWKCKWaVwkUSM7s3QKBkmn1xfi3VS8i6XC3yR7ZLsg/efqsf4dT+HpXi4XDvEVFBfP0PpsdjI4Oi6svl5sxdY1abVboyHK28ZK20R/hX+8w/vHv8Al2rNoor7anTjTioRWiPzGtVnWm6lR3bCiiirMgooooA2fDEkces2e8gb1mjUn++yHA/HpXe6hafbrK7tN5Tz4yofGdpBDAkenrXlSs6MjoxV0YMjKcFWByCDXa6Z4utnRItSBilAC+eilo392VeQfwP4V4eZYWrKar0tbfofVZLjqEKUsLXdk/u1Vmjmb3RdXsC3nWztGP8AltCDJER65XkfiBWdwa9bt7uzul3208My+sTq2PqBzVO+0PSNQDGW3VJSOJoQEkB9SRwfxBqKWbtPlrR+7/I1r8OqS58NO67P/NHmNFaOraVcaTcCKQ74pAWglAwHUdQR2I71oeGtFj1GSS6ulzawOEVOgmlxnB9hxn61608TThS9tfQ+dp4GtUxH1a1pfkY9tYahef8AHrazSgcFkQ7Afdj8v61fHhrxERn7GPoZoc/+hV311d6fpkCvO8cEK/JGqr1P91EUf0rEbxlpAbCwXjD+9sjH6F815UcwxVbWjT0/r0PoJZRgMN7uJre98l+FmQ+F9P1bT7q+W7t3ihlhQglkZTIjYGCpPOCat+LlB0nJ6pdQMPqdy/1q5pmu6fqskkVus6yRx+awlRQNuQvBVj61U8W/8gh/+vi3/ma4VOpPGxlVVndHqunRp5ZOFCXNGz1OQ0H/AJDGlf8AXf8A9lavRr//AI8dQ/69Lj/0W1ec6D/yGNK/67/+ytXo1/8A8eOof9elx/6LaujNf94h6fqceQf7nU9X+SPKIkaV4Yl+9I6Rr9WIUV63BDHbwwQRjCQxpGg9lGK8t0zH9oaVnp9stc/9/Fr1aqzqTvCPqRw1BctSfXRHnGt/2lfaneS/Zrpo0kaCDEMpURxnaCOO/J/Gs37Hf/8APpdf9+Jf8K9EbxF4fRnRr1QyMysDHNwVOCPu03/hJPDv/P8AL/37m/8AiKunjq8IKMaLsvX/ACMq2V4SrUlOeJV2+6/zKPhF7wWt3a3EcyLBKrw+ajr8sgJKruHYjP41W8aQr5em3IHzLJLAx9Qy7wP0P51r/wDCSeHf+f5f+/c3/wARWD4n1bS7+0tYbScSutz5jgI67VCMvVwPWufDqrPGKq4ON/J9jsxcsPTy6WHVVSaWmqvvp1J/Bckfl6nFkeZ5kMmO5QqVz/n1rT8RaRPqtvB9ndRNbO7ojnCyBwARnseBiuDsL66065jurdgHXKsrcrIh6ow9K7mx8U6RdBVnc2sx6rN/q8/7Mg4/PFa43D1qWI+s0lf+rHPlmLw2Iwn1LEO34X1vv3OFurG/sm23VtNF2BdTsP0cfL+tV/Qj8CK9dDQTx5UxyxOOoKujD8MisPUvC+mXiu9sotbjkgxjETH0eMcflitaObxb5a0bHPieHZxXNh5c3k9/v2/I8+qa0hNxd2cAGfOuIY/wZwDSXFvPazzW867ZYWKOPf1B9D1FaXhuHztZsc9IvNnP/AEOP1xXr1aijSlUXa589h6LnXjSa1bS/E9IYqisx4VFJPsAM15HNIZpZ5j1llkkP1di1enaxN9n0vU5ehFtIq/7zjYP515bXjZND3Zz9EfScS1Pep0/V/19xseHLZbnV7MMMpDvuGHvGMr+uK9CvLgWtpd3J58iGSXB7lVJArifB+P7Unz1+xyY/wC/iV1Wv5/sbVMdfI/TcM1hmP7zFxg9tPxZ2ZL+6y+dWO+r+5Hmkkkk0kksrFpJXaSRj1LMck02iivplpoj4dtt3Z6T4cvJL3SrZ5GLSwlreRjyWMeME/gRXP8AjK2VLqyulGPPieJ8d2iIIJ/A/pWj4Nz/AGfeen2xsf8AftM1F40x9n0z18+XH02DNfM0f3WYOMdrv8j7jEv2+Tqc90l+DsR+Cvuav/v2v8pK2fEN9LYaZPJE22aVlt4mHVS+csPcAHFY3gr7mr/79r/KSrHjMn7DZDsbsfpG9KtBTzHlltdfkh4epKlk/PHez/NnDcnJOSScknkk+pqS3ha4uLa3XrPNHEPbewXNR1f0bH9raTnp9ri/PPFfSVJOMHJdEfFUYqdWMX1aPT4444o4ooxtSNFjQDsqjAFeZa1fyajqFzKWJijdobdeyxocZA9+p/8ArV6c+dj467Wx9cV5Bzznrk5+tfP5NBSlOb3VvxPr+JKkoU6dKOzv+FrfmFFFFfRnxZ23g22Vba9vCPnlmECnuEjAY4+pP6VY8WS3n2KG1to5n+0yHzjCjtiOMA7TtHckflUnhPH9jxY6+fcZ+u6tK91PTdPMQvJxEZQxjyjtu24z9wH1FfI1akvrrmo8zT29D9Ew9GH9mRpuXKmtX6/57HmX2LUP+fS6/wC/Ev8A8TV7SF1Kz1KxnFtdKvnJHL+5lAMUh2sDx+P4V2n/AAknh3/n+X/v3N/8RR/wknh3/n+X/v3N/wDEV6E8diJxcXRevr/keRTyvCUpqccSrp33X+ZpXMK3FvcwMMrNDJGf+BKRXkmCMg9QSD9RxXpJ8SeHQCftqn2Ec3/xNebsdzO395mb8zmqyinUpqammtt/mRxFVo1XTdOSb12d+wlFFFe4fKhRRRQAh6H6Gu75rhcZ49ePzr0z+zzXlZjUUOW/n+h9Bk1KVTn5fL9S3qF4lhZ3V2+MQxllB/ic8Kv4nFeVSSSTSSyyMWkldpJGPUsxyTXYeM7shLGxU/fLXMo/2V+VB+efyrjajKaHJS9o95fkXxBinVxCoraP5sKKKK9g+cCiiigAooooAkggnuZY4IIzJNISERcZOAWPXimyRyxO8cqOkiHDo4Ksp9wa2vDNzp1pqDS3knlkwmOB2HyK7EZLN244H1ruLmw0vUkU3EEM6kfJIPvYP92ROf1ry8TmDw1XllH3e572ByhY3D+0hNKV9vLz6o8sR5I2Dxu6OOjRsVYfQrzXceFdVv74XdvdMZfs6RukzffwxI2uR19qmbwhoZbIa7UZ+6soI/8AHlJ/WtaysbDTIGjto1jj+/I7HLMQPvO7V5+Ox1CvS5Yq7/I9fK8qxeErqc5JR6pPcxfGKxnTbZzjet4gQ98Mj5FWvCoQaNa7epkuC/8AveYw5/Sua8TavFqE8VvbNutrUsS46SynglfYdB9TU/hfWYLMyWF04SGWTzIJGOFSQgAqx7A8Y/8Ar1UsLU+oKNtb3t5f1qTDHUf7Vcr6Nct+l9P+GDxn5v26xDZ8r7KfL9N+87se/wB2uYr1e7sbDUYRFdRJLH95DkgqSPvIy8/rWP8A8Ihoec7rsD+75q4/Vc/rVYPMqVKkqc000RmOSYiviJVqTTT7mN4M/wCQhe/9ef8A7UWtzxZ/yB3/AOvi3/mavafo2maYzyWsbiR08tneR3JXIOME4/Ss/wAWvGNKZC672ngKqSNxAOTgda5XXjiMbGcNro71hZ4TLJ0qjV7M5HQf+QxpX/Xf/wBlavRr/wD48dQ/69Lj/wBFtXnOg/8AIY0r/rv/AOytXo1//wAeOof9elx/6Lats1/3iHp+pzZB/udT1f5I8oidonhlX70bpIv1UhhXrcE0dxBBPGcxzRpIh9mGa8iHQfSun8O+II7JRY3rEWxYmCXk+SWOSrf7J6+38u3NMLKtBThq0eXkWOhhqrp1HZS6+Zn6/YS2Oo3JKkQXMjzwPj5SHO5lz6g/55rJr1mSKxv4NsiQ3FvIMjO10PupFZbeFvD7MWFvIueyTSgfqa58Pm0IwUaqd0dmL4fqTqOeHkrPXU86or0y30DQrZg0dlGzjkNMWlI/CQkfpXGeJbaG21WfySmydEmKIR+7c/KykDp0z+Nd2GzCniKns4pnl43J6uDo+1nJPW2hmQ2l5cpcSQQSSpbhWmMY3bA2cEgc9jUFdp4SvNLhtpLZplS8lmZ3WX5d4xtUIx4P0962rzQtFvmLzWqiU8mSEmNyfU7OD+IrGpmXsazp1Iu3RnTRyR4nDxq0Zrme6/4Y84t7q8tHElrPLCwOcxsQD9V6H8q9I0S+n1DTba5nUCVjIjFRhXKMV3Ae9UV8I6GrhibpwDnY0o2n2O1Qf1rXklsNMtQzmOC2gQKoHAAHRVA5JrzsfiqOJSjSj73e34Hs5TgMRgXKdeSUbbX09fI4rxesa6pEVxue0jMmO5DuoJ/Cp/BkO67v5yOIrdIgfeRt3/stYWqXz6lfXF2QVVyFiU9VjUYUH37n6113g2HZYXUx6zXRUf7sagfzJrvxKdDAckt7JHkYJxxWaupDa7ZN4tm8vSTHnm4uIY8eoXMh/lXn9df40m50y3HYTTt/46g/rXIVtlcOXDJ97s5s+qc+MkuyS/X9TV8PXS2ur2TOcJKWt2J4A80YXP44r0W7gW6tbq2bgTwyRZ9NykZryXntwRyCO1d/oPiCC9iitbuRY71AEBcgLcAcBlJ/i9R/kcma4ebarw6b/wCZ6GQYymoywtV77fPRo4OWKWCWWCVSssTtHIp6hlOKZXp9/ouk6iwkuYP3oAHmxsUkIHYlev41DaeHNEs5FmSBpJEOUadzJtI7hT8ufwq45xS5LyTuZz4cr+0tGS5e/X7hfD1lJY6XbRyKVllLXEqnqrScgH3Axmud8Y3SyXlnaqc/Zomkf2eUjAP4AH8a6TVtastLibeyyXJH7qBT8xPYvjoK83nnmuZpriZt0szl3PuewHp6Vjl1GdWs8TNd7fM6s5xNLD4aOBpO70v5Jd/NnW+Cvuav/v2v8pKn8Z/8eNj/ANff/tNqg8Ffc1f/AH7X+UlT+M/+PGx/6+//AGm1RL/kZfNfkaQ/5Enyf/pRw9SW8zW89tOvWCaOUe+xg2Kjor6NpNWZ8VGTi00evRSRzRxSxndHKiyIR3VhkGvNNc06XTr+dSp+zzO8ts+PlKsd23PqOn/661/DniCK1RdPvn2wgn7NM33Y8nPlv7eh/wAjsJYbO9h2TRxTwOAwDBXQ+hBr5aEp5bWakrxf4n3tWFLOsNFwlaS/B9U/I8lor0ZvC/h4sW+zOM/wrNMF/LdTL7w/pQ02+itbWKObyjJHIclw8fzgb3JPOMHnvXprN6LaST1/rueI+HcTGLk2tPXX8Cl4Nula2vbMn54pROo7lJAFOPoR+tWPFdhNd2UU8Kl5LN2dlUZYxOMMQB6YBri9PvrjTrqG7g+8nDofuyRn7yN/n+Vekadqun6nEr28g34BkhcgSxn0K/1rixtKphsR9Zgrr+r/AHnpZZXpY7BvBVXZ7f5Neh5ZS16ZdeH9Du3aSS0VZGOWaFmiJPqQhA/SoU8L+HkIJtnfHaSaUj8gRXWs4o2u07/15nny4cxKlZSjb5/5HnFLXeeI9N0+PR38iK3ga2kSWMKqoX52suepJB/SuDrvwuJjiYc8VbU8nH4GWCqKnJ30uFFFFdRwBRRRQBYsYjPe2MIGfNuYE/AuM16xXnPhe38/V7dsZW2SW4b6gbF/UivRq+Yzid6sYdl+Z9zw3S5aE6nd/l/w55p4guxeapcSKcxqkMcf0CBj+pNZVBJYkk5J/wD1UV9JTpqnBQXQ+LrVXWqSqS3buFFFFWZBRRRQAUUUUAFWLa+v7T/j1up4R3EbkKfqvT9Kr0UpRUlZq5UZyg+aLszXHiTxEox9tJ92ihJ/PbVO61PVL0bbq7mkT+4W2p/3wuB+lVKKyjQpRd4xSfojeeLr1Fyzm2vVhRRRWxzFq31LVLQBba8uI0HRFclB/wABbI/Srf8AwkXiHGPtz/8AfuHP57ayqKylQpSd5RT+R0QxVeCtCbS9WXZdX1mcESX90QeoWQoPyTFUiWYlmJZj1LEk/maKKuMIw+FWM51Z1NZyb9RyPJE6SRuySIdyOhKsp9QRzVhtS1V1ZHvrtkYFWVp5CGB4IIzVWihwjLVoUak4q0W0FFFFUQT295fWhzbXM0OeojdlU/Ven6VeHiLxCBj7c/4xwk/mVrKorKVGnN3lFP5G8MTWpq0JtLybL02sa1OCst/clT1CvsB+ojxVHrknqeST1NFFXGEYaRViKlWdR3nJv1Crtvq2sWoCwX1wqjorNvUfRXyKpUUShGatJXFCpOm7wbT8jXPiTxERj7aR7iKEH89tZ1xdXl2++5nlmYdDK5bH0B4FQ1qaVot3qy3TQSRxiDYMy7trs2TtBXP8qxcaOHXPZR87HVGeKxklS5nJ9r3MuvTtCtja6Tp8TDDtF5zjvulJk5/OuesPB9ys8Ul/NAYUYM0cJdjJjnaSwGB611d7dwWFrPczEBIkJA6Fm6Ki+56V4eZYqNflpUnfX/hj6jJMDPCc+IxC5dOvbds4PxVcCfV5UByttFFB+OPMP86w6fNNJcTTzyHMk0jyuf8Aac7jTK9+hT9lTjDsj5LFVvb1p1e7bCiiitTnL8Gs61bKEhvpwo4CuwkAHoBIDT5Ne1+UFXv5gDwfL2Rn80ANZtFY+wpN3cVf0R0rF10uVTdvViszMzMzFmY5ZmJJJ9STSUUVscxLDdXltv8As9xNDvxv8mRk3Y6Z2mlmu765CrcXM8yqcqJpHcA9MgMahoqeSN+a2pftJ8vLd27BRRRVEBVi3vtQtP8Aj2up4h/dRyE/75PH6VXopSipK0lcqM5QfNF2Zq/8JD4hxj7fJ/3xDn89tU7jUNSuhi4u7iVf7ryNs/75HH6VWorONGnF3jFL5G08VXmrTm2vNsKVWdGV0ZldeVZCVYH2I5pKK1OfY0o9d16IALfzkD/nptk/VwTTn8QeIHGDfyj/AHFjT9VXNZdFY/V6N78i+5HV9cxCVvaS+9kk09zcNvnmllf+9K7Ofw3Go6KK2SSVkczk5O7CiiigQUUU6OOSWSOKNS0kjrGijqWY4Ao2Gk27I7TwbabLe8vWHM8ghjP+xHySPqT+ldVVawtUsbO0tE6QxKhP95urN+Jyas18Niq3tq0p9z9TwGH+rYeFLqlr69Tx+iiivuj8rCiiikAUUUUAFFFFABRRRQAUUUUAFFFFABRRRQAUUUUAFFFFABRRRQAUUUUAFFFFABRRRQAV0Gi+Io9Kt2tnszIrSNKZI3CuS2ByrDHb1rn6KyrUYVo8lRXR0YbE1MLP2lJ2Z2knjS3CnyrCUt28yRFGf+Ag1zep6vf6rIrXDBY0JMcMeRGnvzyT7ms+isaOCoUXzQjqdOJzPFYqPJUlp22Ciiius84KKKKACiiigAooooAKKKKACiiigAooooAKKKKACiiigAooooAKKKKACiiigArpvCWmme5fUJF/dWuUhz0adhyR/uj+ftWBaWs97cwWsC5kmbaPRR1LN7Dqa9RsrOCwtYLWEfJEuM92Y8sx9yea8jNMV7Kn7OO8vyPosiwLr1vbSXux/F/8DcsUUUV8offnlOoWrWV5cWzDBj8v/wAeRX/rVWum8Y2pjvra6A+W5h2Mf+mkRx/Ij8q5mvusLV9tRjPuj8qx1D6viJ0uz/Dp+AUUUV0HGFFFFABRRRQAUUUUAFFFFABRRRQAUUUUAFFFFABRRRQAUUUUAFFFFABRRRQAUUUUAFFFFABRRRQAUUUUAFFFFABRRRQAUUUUAFFFFABRRRQAUUUUAFFFFABRRRQAUUUUAFFFFABQASQqglmICgDJJPAAAo5JAAJJOAByST2Fdx4d8Pm12X98n+kkZghb/liD/Ew/vfy+vTlxWJhhoc0vku534HA1MbU5IbdX2Lfh3RRpsHnzqPttwo39/Kj6iMe/97/63O7RRXxlarKtNznuz9Lw+HhhqapU1ogooorI3MfxHYm+0yfYuZrb/SYsdTsB3KPqM15vXsFeaa/pp02/kVVxbz5mtz2Ck/Mn/AT+mK+iyfEb0X6r9T47iLBv3cTH0f6f5fcZVFFFfQHx4UUUUAFFFFABRRRQAUUUUAFFFFABRRRQAUUUUAFFFFABRRRQAUUUUAFFFFABRRRQAUUUUAFFFFABRRRQAUUUUAFFFFABRRRQAUUUUAFFFFABRRRQAUUUUAFFFFABRRSUALT4YZ7iRIYI3klc4REGWJrW0zw7qeolHZTb2xwfNmUgsP8ApmnU/oK7jTdJ0/S49ttH+8YASTPgyv8AU+nsK8zFZjToe7HWX9bnuYDJq2KalP3Y9+r9EZmh+G4rApdXm2W8wCijmOA/7Pq3v+Xqeioor5atWnXlzzep97hsNTwtNU6SsgooorE6AooooAKztY0yPVLN4DhZk/eW7n+GQDofY9D/APWrRoq6c5U5Kcd0Z1aUa0HTmrpnkUsUsEksMyFJYmKSK3VWHGKZXf8AiHQhqCG7tVAvY1wV4AnQfwk/3h2P4fTgWVkZlZSrKSrKwIZSOCCDX2mExUcTDmW/VH5nmGAngqvLLZ7Pv/wRKKKK6zzgooooAKKKKACiiigAooooAKKKKACiiigAooooAKKKKACiiigAooooAKKKKACiiigAooooAKKKKACiiigAooooAKKKKACiiigAoorp/C2jrdSPf3Uatbxbo4UkUFZZDwWIPGB/P6VjXrRoU3Ul0OrCYWeLqqlDd/h5nMUV6ZL4f0CXJawhUnvFvj/RCBVVvCegN0S4X/dmb/2bNebHOKD3TX9ep7UuHMUvhkn9/wDkee0V3/8AwiOhet3/AN/h/wDE1KnhXw+hBMEj/wC/NJ/7KRTeb4dd/u/4JC4dxb6r7/8AgHnVTwWl7dHbbW80x/6ZRsw/EjivS4dH0WAgxWFsCOhaMOfzfJq8AqgBQAB0AGAPwFc9TOV9iH3nbS4al/y9qfcv8/8AI4Kz8I6rPta6eO1Q4yCRJLj/AHVO3/x6unsPDuj2BVxF5068+bcYcg+qr90flWvRXl18wr1tG7Lsj3sLlOFw2sY3fd6/8AKKKK4D1QooooAKKKKACiiigAooooAKwtb8PQakGuINsV6B97GEmx2kx39D/kbtFa0q06MueDszDEYeniYOnVV0eSXNtdWczwXMTRSr1Vh1Hqp6Ee9RV6te6fY6hF5V3CrgZ2t0dD6ow5FcbqPhO/ty0li32qHk7DhZ1H06H8Pyr6fC5pTq+7U91/gfDY7Iq1BuVH3o/j93+RzdFOkjlido5UeOReCkilWH1Dc02vW3Pn2mnZhRRRQIKKKKACiiigAooooAKKKKACiiigAooooAKKKKACiiigAooooAKKKKACiiigAooooAKKKKACiiigAooooAKKK1NI0W81WUbAY7VWxLOw4HqqDu3+frFSpGnFzm7I1o0Z15qnTV2xuj6TPq1yI1ytvGQbmXsq/3V/2j2/8ArV6VDDDbxRQQoEiiQIir0AFR2dna2FvHbWyBI0/FmY9WY9yasV8fjcY8TPT4Vsfo2WZbHA09dZPd/ogooorgPWCiiigAooooAKKKKACiiigAooooAKKKKACiiigAooooAKKKKACiiigCC5s7K8XZdW8Uy9B5iAkfQ9RWJc+ENHlyYHntyegRt6D8JMn/AMeroqK3pYirS+CTRy18HQxH8WCf5/ecVL4LugT5N9Cw7ebGyH/x0mq58H60OktmR/vyD+aV3tFdsc1xK3d/keZLIcFLaLXzZwa+DtXP3p7NR/vSt/7JVlPBcu1zJfrv2nYscRwWxwCzN0/CuzopSzTEvrb5DjkWCjvFv5s8gZXRnRwVdGZHB6hlOCDSV0PivTja3wu41/c3uWbHRZx94fj1/Ouer6mhVVamqi6nweKw8sNWlSl0CiiitjmCiiigAooooAKKKKACiiigAooooAKKKKACiiigAoAYhiASFGWIBIA6ZNFd74V00W9i9zMg8y+wdrDOIB90EH15P5Vy4vErDU+d6noZfgZY2r7NOy3b7HBUV6LeeGNFuyzJG1tIed1sQq590OV/QVg3Hg3UEyba5gmXsJA0T/puH61z0szw9Td2fmdlfI8XSfurmXl/lucxRWrL4d8QRHmyZx6xPG4/Rs/pUB0bXB/zDrv8ImP8q7FiKT2kvvR5ksHiI6Om/uZRorRTQtefgafcD/fCp/6ERV6DwlrkpHmC3gHcySbj+UYP86mWKow3mvvNIYDFVHaNN/cYFPhhnuJFigiklkbokalmP4Cu1tPB1jHhry4lnPdIx5Uf0J5b9RXQ21nZWaeXawRwr32KAT/vN1P5151bN6UdKau/uR7OG4dr1Hes+Vfe/wDI5TS/CTEpNqjYHBFtG3J9pHH8h+ddhHHFDGkUSKkaAKiIAqqB2AFOor5/EYqpiHeb/wAj67CYGjg48tJfPqwooormO0KKKKACiiigAooooAKKKKACiiigAooooAKKKKACiiigAooooAKKKKACiiigAooooAKKKKACiiigCnqVhFqVnPaycbxujf8A55yLyrf415fPBNbTTW8ylZYXKOp7Edx7HtXrlc74k0Q38f2u1X/TIVwyjrPGOdv+8O35fT2MsxnsZezn8L/Bnzud5a8TD21Ne9H8V/wDgaKORkEEEHBB4II7Givqj4AKKKKACiiigAooooAKKKKACiiigAooooAKKKntLS5vriK2t03SSH/gKr3Zj6ClKSirvYqMXOSjFXbL2haU2qXqqwP2WArJct2IzxGD6t/LNelgBQAAAAAABwABxgVT03T7fTLWO2h5I+aVyPmkkPVj/SrlfG47FfWal18K2P0nKsAsFRs/ie/+XyCiiiuA9YKKKKACiiigAooooAKKKKACiiigAooooAKKKKACiiigAooooAKKKKACiiigAooooAKKKKACiiigAooooAKKKKACiiigAooooAKKKKACiiigDl/EHhz7UZL6wUC55aaEYAm/2l/2v5/Xrw5DKWVgVZSVZWBBBHBBBr2CsXWPD9nqYMqYgvAOJVHyyY6CVR1+vX+Ve5gcy9mlTrbd+x8vmmSKs3Ww+kuq7/8ABPOaKtX2nX+nSeVdwlMn5HHMcnujjiqtfSRkprmi7o+JnCVOTjNWaCiiiqICiiigAooooAKKKKACiitjSvD+oakUkIMFocEzSDlx/wBMlPX69KzqVYUo803ZG1ChUxE+Skrsz7Ozu7+dLe1jLyN17Ki92c9hXoukaPbaTBsTD3EgBnmIwWI/hX0UdqsWGnWWmwiG1j2g4Lu3MkjertVuvlcdmEsR7kNI/mfe5XlEcGvaVNZ/l6f5hRRRXlnvBRRRQAUUUUAFFFFABRRRQAUUUUAFFFFABRRRQAUUUUAFFFFABRRRQAUUUUAFFFFABRRRQAUUUUAFFFFABRRRQAUUUUAFFFFABRRRQAUUUUAFFFFABRRRQAyaGC4jaKeNJI24ZJFDKfwNcvf+D7eQtJp8xhY8+TNl4vorfeH611dFdFHE1aDvTdjjxOCoYpWqxv8An955fd6NrFlkz2kmwf8ALSIeZHj13JnH44rOr2GsrV7Oxe3kke1t2k/vtFGW/wC+iM17VDN3JqM4/cfM4rh2MIudKei6P/P/AIB5pRUtwqrK4UADPQAAfpUVfQLVXPkJaOwUUVp6RFDLOglijcbukiqw/IipqS5IuTNKUPazUF1M1VeRgiKzseioCzH6Ac1s2fhrW7sqWhFtGer3PynHtGPm/QV6Bb29rAiiCCGIFRkRRomf++QKmr52rnE3pTjb11PssPw5TWtad/JaGFp3hjS7IrJMDdTjBDTAeWp/2Y+n55rd6cDpRRXjVa06z5qjufSUMPSw8eSlGyCiiisjcKKKKACiiigAooooAKKKKACiiigAooooAKKKKACiiigAooooAKKKKACiiigAooooAKKKKACiiigAooooA//Z;" parent="1" vertex="1">
          <mxGeometry x="820" y="220" width="100.24" height="70" as="geometry" />
        </mxCell>
        <mxCell id="lqoshv_2jQq_HE2Gdl7D-14" style="edgeStyle=orthogonalEdgeStyle;rounded=0;orthogonalLoop=1;jettySize=auto;html=1;entryX=0;entryY=0.5;entryDx=0;entryDy=0;" parent="1" source="70v6hYJZjHkLKxrLbw3X-1" target="lqoshv_2jQq_HE2Gdl7D-13" edge="1">
          <mxGeometry relative="1" as="geometry">
            <Array as="points">
              <mxPoint x="422" y="515" />
              <mxPoint x="460" y="515" />
            </Array>
          </mxGeometry>
        </mxCell>
        <mxCell id="70v6hYJZjHkLKxrLbw3X-1" value="Device" style="aspect=fixed;html=1;perimeter=none;align=center;shadow=0;dashed=0;image;fontSize=12;image=img/lib/mscae/NetworkInterfaceCard.svg;" parent="1" vertex="1">
          <mxGeometry x="400" y="420" width="44.5" height="50" as="geometry" />
        </mxCell>
        <mxCell id="lqoshv_2jQq_HE2Gdl7D-13" value="&lt;font color=&quot;#000000&quot;&gt;steeper motor&lt;/font&gt;" style="aspect=fixed;perimeter=ellipsePerimeter;html=1;align=center;shadow=0;dashed=0;fontColor=#4277BB;labelBackgroundColor=#ffffff;fontSize=12;spacingTop=3;image;image=img/lib/ibm/users/sensor.svg;" parent="1" vertex="1">
          <mxGeometry x="460" y="510" width="30" height="30" as="geometry" />
        </mxCell>
        <mxCell id="lqoshv_2jQq_HE2Gdl7D-18" value="" style="endArrow=classic;startArrow=classic;html=1;exitX=0.809;exitY=0.02;exitDx=0;exitDy=0;exitPerimeter=0;entryX=0;entryY=0.75;entryDx=0;entryDy=0;" parent="1" target="SZY12_XKgGBlkoAp8IEY-5" edge="1">
          <mxGeometry width="50" height="50" relative="1" as="geometry">
            <mxPoint x="426.0005000000001" y="425" as="sourcePoint" />
            <mxPoint x="580" y="300" as="targetPoint" />
            <Array as="points" />
          </mxGeometry>
        </mxCell>
        <mxCell id="lqoshv_2jQq_HE2Gdl7D-19" value="MQTT" style="edgeLabel;html=1;align=center;verticalAlign=middle;resizable=0;points=[];" parent="lqoshv_2jQq_HE2Gdl7D-18" vertex="1" connectable="0">
          <mxGeometry x="-0.122" y="1" relative="1" as="geometry">
            <mxPoint as="offset" />
          </mxGeometry>
        </mxCell>
      </root>
    </mxGraphModel>
  </diagram>
</mxfile>
